#!OML:ASF F:\VICON\USERDATA\INSTALL\Justin_Nancy\Justin_Nancy.ASF
:FULLY-SPECIFIED
:DEGREES
340
root -6.36838 17.456 7.86253 -25.9095 80.694 -31.7355
lowerback 6.38046 2.19864 3.99182
upperback 0.0370782 3.37234 2.7548
thorax -3.47772 1.65053 0.298561
lowerneck -15.999 -4.48052 -8.62653
upperneck 23.8537 -4.66518 3.87536
head 10.62 -2.35402 2.20317
rclavicle 1.87852e-014 2.18663e-014
rhumerus -31.5194 -10.3067 -78.3089
rradius 34.5657
rwrist 1.353
rhand -15.3418 9.96063
rfingers 7.12502
rthumb 10.8351 -19.7399
lclavicle 1.87852e-014 2.18663e-014
lhumerus -37.1888 17.6807 74.4782
lradius 24.6241
lwrist -7.39549
lhand -17.5509 25.8026
lfingers 7.12502
lthumb 8.70371 55.6031
rfemur 10.934 0.725271 28.6414
rtibia 12.9942
rfoot -9.64333 -0.661449
rtoes -2.7369
lfemur -30.5942 -1.30221 -22.4897
ltibia 24.9448
lfoot -13.5693 2.56539
ltoes 1.32478
341
root -6.2482 17.4487 7.90255 -23.2934 80.6393 -29.1427
lowerback 6.28916 2.32827 3.51757
upperback -0.068026 3.50459 2.71522
thorax -3.55773 1.72072 0.510919
lowerneck -15.8097 -4.35351 -8.68742
upperneck 23.773 -4.48154 3.87049
head 10.5424 -2.27656 2.24018
rclavicle -1.14301e-014 -9.14409e-015
rhumerus -31.7157 -10.3906 -78.3144
rradius 34.2436
rwrist 2.05915
rhand -15.2907 10.2742
rfingers 7.12502
rthumb 10.8844 -19.4237
lclavicle -1.14301e-014 -9.14409e-015
lhumerus -38.0427 19.7092 73.3541
lradius 24.1017
lwrist -9.00326
lhand -17.0144 25.8295
lfingers 7.12502
lthumb 9.22144 55.6078
rfemur 10.6928 0.701428 28.2664
rtibia 14.2079
rfoot -10.0458 -0.5304
rtoes -4.10802
lfemur -29.929 -1.65817 -22.6106
ltibia 24.8385
lfoot -13.7077 1.60633
ltoes 1.13681
342
root -6.12333 17.4331 7.94093 -20.8065 80.5802 -26.714
lowerback 6.02838 2.50638 3.12878
upperback -0.120239 3.69426 2.61538
thorax -3.47982 1.82021 0.618278
lowerneck -15.9156 -4.34625 -8.85773
upperneck 23.9981 -4.42045 3.90635
head 10.6474 -2.25828 2.29132
rclavicle -2.13694e-014 1.82882e-014
rhumerus -31.8711 -10.5091 -78.3223
rradius 34.0288
rwrist 2.38091
rhand -15.2895 10.2855
rfingers 7.12502
rthumb 10.8855 -19.4123
lclavicle -2.13694e-014 1.82882e-014
lhumerus -38.7186 21.1257 72.3584
lradius 23.6968
lwrist -9.64292
lhand -16.6578 26.1708
lfingers 7.12502
lthumb 9.56557 55.9336
rfemur 10.9523 1.07761 27.9662
rtibia 14.394
rfoot -9.92541 -0.568686
rtoes -3.29122
lfemur -29.6047 -1.02567 -23.1777
ltibia 25.0993
lfoot -13.6472 0.288558
ltoes -2.11336
343
root -6.00524 17.3967 7.95851 -19.5274 80.5544 -25.6974
lowerback 5.63888 2.64059 3.34854
upperback -0.214096 3.86017 2.40865
thorax -3.32775 1.89695 0.287025
lowerneck -16.0829 -4.37848 -8.83434
upperneck 24.2671 -4.43194 3.8263
head 10.7779 -2.26914 2.25749
rclavicle -2.26615e-014 -3.22031e-014
rhumerus -31.9968 -10.8571 -78.4942
rradius 33.8439
rwrist 2.71032
rhand -15.1952 10.2436
rfingers 7.12502
rthumb 10.9765 -19.4495
lclavicle -2.26615e-014 -3.22031e-014
lhumerus -38.9784 21.5427 71.678
lradius 23.1105
lwrist -9.612
lhand -17.1535 26.294
lfingers 7.12502
lthumb 9.08726 56.0782
rfemur 10.804 1.08265 27.7175
rtibia 14.9106
rfoot -9.80043 -0.197825
rtoes -2.24737
lfemur -29.5917 0.604765 -24.2597
ltibia 25.0559
lfoot -13.0961 -0.272368
ltoes -12.7022
344
root -5.87645 17.4638 7.94564 -19.5495 80.3925 -26.0173
lowerback 5.39405 2.71551 4.04309
upperback -0.37373 3.99211 2.25935
thorax -3.2962 1.94772 -0.252642
lowerneck -16.1216 -4.32964 -8.67485
upperneck 24.4314 -4.33007 3.56992
head 10.8291 -2.23756 2.15404
rclavicle -5.37216e-014 1.19271e-015
rhumerus -32.2095 -10.8354 -78.7979
rradius 33.7237
rwrist 2.81433
rhand -14.9741 10.4879
rfingers 7.12502
rthumb 11.1897 -19.1938
lclavicle -5.37216e-014 1.19271e-015
lhumerus -39.4616 22.6331 70.6973
lradius 22.4233
lwrist -10.649
lhand -17.3344 26.4024
lfingers 7.12502
lthumb 8.91269 56.1942
rfemur 10.8354 0.470848 27.427
rtibia 14.7263
rfoot -8.93512 0.566838
rtoes -4.49488
lfemur -29.6823 -1.79153 -23.0326
ltibia 25.3379
lfoot -12.1186 -0.129264
ltoes 3.02215
345
root -5.74975 17.4131 7.99312 -18.3404 80.1537 -24.6137
lowerback 5.39364 2.88447 3.74109
upperback -0.348928 4.19813 2.30522
thorax -3.28849 2.05629 -0.0533543
lowerneck -16.1609 -4.3119 -9.15722
upperneck 24.5942 -4.20902 3.75001
head 10.9075 -2.20476 2.31912
rclavicle 1.78906e-015 -2.06736e-014
rhumerus -32.4119 -10.9126 -78.8379
rradius 33.5598
rwrist 3.16432
rhand -15.1057 10.6908
rfingers 7.12502
rthumb 11.0628 -18.9976
lclavicle 1.78906e-015 -2.06736e-014
lhumerus -40.1251 24.1547 69.6622
lradius 21.7632
lwrist -11.9521
lhand -16.4741 26.1967
lfingers 7.12502
lthumb 9.7428 55.9514
rfemur 11.3588 0.955304 27.4586
rtibia 15.1372
rfoot -8.63658 0.419625
rtoes -6.84342
lfemur -29.3179 0.854648 -24.4065
ltibia 25.1671
lfoot -11.7096 -0.17354
ltoes -14.1585
346
root -5.62411 17.4951 7.96808 -14.9097 80.5707 -21.3757
lowerback 5.36328 2.84414 3.78604
upperback -0.555803 4.13748 2.0033
thorax -3.4613 2.0149 -0.388354
lowerneck -16.2877 -4.32209 -9.49295
upperneck 24.9924 -4.13941 3.87066
head 11.0893 -2.18894 2.43327
rclavicle 2.22639e-014 3.37934e-014
rhumerus -32.5839 -11.2873 -78.6616
rradius 33.1743
rwrist 4.47243
rhand -14.8765 10.8948
rfingers 7.12502
rthumb 11.2839 -18.7817
lclavicle 2.22639e-014 3.37934e-014
lhumerus -40.9807 25.4769 68.6009
lradius 21.3473
lwrist -13.0111
lhand -15.6986 26.0422
lfingers 7.12502
lthumb 10.4909 55.7604
rfemur 11.24 0.491686 26.408
rtibia 15.1926
rfoot -7.56217 0.988986
rtoes -8.94017
lfemur -29.1621 -3.30835 -23.4223
ltibia 25.3519
lfoot -11.1841 0.455265
ltoes 9.36541
347
root -5.49881 17.4684 7.99006 -11.6758 80.6911 -18.1627
lowerback 5.26148 2.91993 3.5492
upperback -0.649005 4.20372 1.69017
thorax -3.49097 2.04541 -0.580944
lowerneck -16.2788 -4.35061 -9.24547
upperneck 25.0863 -4.21425 3.74526
head 11.1185 -2.21431 2.33616
rclavicle -2.03257e-014 1.51076e-014
rhumerus -32.7351 -11.5668 -78.9516
rradius 32.8242
rwrist 4.57783
rhand -15.1745 10.9652
rfingers 7.12502
rthumb 10.9964 -18.7268
lclavicle -2.03257e-014 1.51076e-014
lhumerus -41.686 26.4894 67.4614
lradius 20.9201
lwrist -13.9047
lhand -15.9055 26.0764
lfingers 7.12502
lthumb 10.2913 55.8046
rfemur 11.0417 0.523131 25.7358
rtibia 16.1582
rfoot -7.03432 1.24269
rtoes -8.54253
lfemur -29.0538 -1.41515 -25.0257
ltibia 25.2499
lfoot -10.3165 -0.342582
ltoes -1.29098
348
root -5.36107 17.4951 8.03004 -11.9002 80.524 -18.3102
lowerback 5.11564 2.99003 3.55358
upperback -0.621679 4.28851 1.68154
thorax -3.37682 2.08981 -0.588915
lowerneck -16.1692 -4.25734 -9.07598
upperneck 24.8848 -4.11804 3.65227
head 11.0068 -2.16619 2.28706
rclavicle -3.97569e-015 2.26615e-014
rhumerus -32.7805 -11.6396 -79.2711
rradius 32.5835
rwrist 4.64986
rhand -15.1711 11.0834
rfingers 7.12502
rthumb 10.9998 -18.6084
lclavicle -3.97569e-015 2.26615e-014
lhumerus -42.3825 27.7283 66.3871
lradius 20.3641
lwrist -14.8633
lhand -16.4383 26.1421
lfingers 7.12502
lthumb 9.7773 55.8952
rfemur 10.9915 0.962173 25.845
rtibia 17.1029
rfoot -6.37478 1.16434
rtoes -6.26249
lfemur -28.6017 -1.81639 -24.5737
ltibia 25.6177
lfoot -9.8716 -0.0865432
ltoes 4.45028
349
root -5.23044 17.5108 8.06249 -14.9816 80.2977 -21.2574
lowerback 5.19153 3.05711 4.11156
upperback -0.622047 4.42772 1.84994
thorax -3.3879 2.15149 -0.738968
lowerneck -16.108 -4.19543 -9.17601
upperneck 24.8679 -3.99904 3.62974
head 10.9825 -2.12382 2.31376
rclavicle -5.47155e-014 -2.62396e-014
rhumerus -32.9256 -11.7617 -79.3286
rradius 32.4247
rwrist 4.80406
rhand -14.827 11.2716
rfingers 7.12502
rthumb 11.3316 -18.4023
lclavicle -5.47155e-014 -2.62396e-014
lhumerus -43.3001 29.3307 65.1257
lradius 19.8365
lwrist -16.4842
lhand -16.6277 26.1258
lfingers 7.12502
lthumb 9.59456 55.8874
rfemur 10.5926 0.813924 26.3641
rtibia 18.7596
rfoot -5.70997 1.38169
rtoes -7.75397
lfemur -28.0428 -2.21468 -23.7273
ltibia 25.8567
lfoot -9.56135 0.770639
ltoes 6.24973
350
root -5.11356 17.5066 8.05749 -15.9753 80.3896 -22.3093
lowerback 5.34354 2.97633 4.74261
upperback -0.778842 4.37906 1.84598
thorax -3.59237 2.10877 -1.10232
lowerneck -16.1441 -4.12228 -9.3737
upperneck 24.9439 -3.8133 3.56058
head 11.0093 -2.06598 2.34935
rclavicle -9.29318e-015 -1.15295e-014
rhumerus -33.1707 -11.6321 -79.2469
rradius 32.3082
rwrist 5.12441
rhand -14.3618 11.5663
rfingers 7.12502
rthumb 11.7803 -18.0824
lclavicle -9.29318e-015 -1.15295e-014
lhumerus -44.1791 30.5465 64.1469
lradius 19.194
lwrist -17.5551
lhand -16.7359 25.703
lfingers 7.12502
lthumb 9.49015 55.4693
rfemur 9.81533 -0.113594 26.1032
rtibia 20.3441
rfoot -4.43903 2.16575
rtoes -10.8024
lfemur -27.9719 -2.65646 -23.6628
ltibia 26.3616
lfoot -9.39669 1.39891
ltoes 5.36563
351
root -4.97684 17.5028 8.1099 -16.3546 80.2282 -22.5772
lowerback 5.23288 3.01689 4.55301
upperback -0.776966 4.41851 1.94535
thorax -3.54793 2.13506 -0.8918
lowerneck -16.1617 -4.04887 -9.31294
upperneck 24.9415 -3.67395 3.37889
head 10.997 -2.01866 2.29294
rclavicle -1.49089e-014 -1.78906e-014
rhumerus -33.3985 -11.5341 -79.3304
rradius 32.2534
rwrist 5.97865
rhand -14.071 11.6116
rfingers 7.12502
rthumb 12.0606 -18.0209
lclavicle -1.49089e-014 -1.78906e-014
lhumerus -44.5633 30.5625 64.0768
lradius 18.7352
lwrist -17.1815
lhand -16.4179 25.8238
lfingers 7.12502
lthumb 9.79697 55.5759
rfemur 9.25776 -0.0338005 26.1414
rtibia 22.2444
rfoot -3.30776 2.36899
rtoes -9.55068
lfemur -27.5595 -1.08022 -24.0045
ltibia 26.7912
lfoot -9.44818 0.25067
ltoes 2.1409
352
root -4.84722 17.5047 8.14061 -16.985 80.2229 -23.1216
lowerback 5.20093 3.03424 4.63436
upperback -0.775496 4.44783 1.99506
thorax -3.5252 2.14956 -0.88572
lowerneck -16.1538 -4.01773 -9.34345
upperneck 24.8535 -3.59304 3.26912
head 10.9561 -1.99766 2.26866
rclavicle -5.3324e-014 -4.53229e-014
rhumerus -33.5387 -11.5758 -79.3953
rradius 32.1887
rwrist 6.38208
rhand -13.8725 11.6027
rfingers 7.12502
rthumb 12.2521 -18.0184
lclavicle -5.3324e-014 -4.53229e-014
lhumerus -44.8875 30.4563 64.1374
lradius 18.5687
lwrist -16.8189
lhand -15.6686 26.1179
lfingers 7.12502
lthumb 10.5198 55.8346
rfemur 8.35968 -0.219191 26.029
rtibia 24.4605
rfoot -1.86727 2.8266
rtoes -8.31158
lfemur -27.1358 -0.580857 -24.0342
ltibia 27.0405
lfoot -9.39166 -0.490851
ltoes 1.75166
